<svg alt="LaLiga logo" xmlns="http://www.w3.org/2000/svg" width="70" height="77" viewBox="0 0 70 77"><defs><style>.llv-character,.llv-frontball<!-- -->{<!-- -->fill:#1a1919<!-- -->}<!-- -->.llv-backball,.llv-blue,.llv-darkblue,.llv-frontball,.llv-green,.llv-orange,.llv-purple,.llv-red,.llv-yellow<!-- -->{<!-- -->fill-rule:evenodd<!-- -->}<!-- -->.llv-backball<!-- -->{<!-- -->fill:#fff<!-- -->}<!-- -->.llv-purple<!-- -->{<!-- -->fill:#812c7c<!-- -->}<!-- -->.llv-darkblue<!-- -->{<!-- -->fill:#005093<!-- -->}<!-- -->.llv-blue<!-- -->{<!-- -->fill:#008fc9<!-- -->}<!-- -->.llv-green<!-- -->{<!-- -->fill:#009949<!-- -->}<!-- -->.llv-yellow<!-- -->{<!-- -->fill:#fff101<!-- -->}<!-- -->.llv-orange<!-- -->{<!-- -->fill:#e9822c<!-- -->}<!-- -->.llv-red<!-- -->{<!-- -->fill:#d8232a<!-- -->}</style></defs><g fill="none" fill-rule="evenodd"><path class="llv-claim llv-character llv-claim-es" fill-rule="nonzero" d="M0 74.712V70.46h.886l1.7 2.861v-2.86h.823v4.252H2.52L.823 71.85v2.862H0zm5.186-2.218a.872.872 0 0 0-.264.646.9.9 0 0 0 .919.907.9.9 0 0 0 .658-.26.867.867 0 0 0 .267-.647.867.867 0 0 0-.267-.646.9.9 0 0 0-.658-.267.89.89 0 0 0-.655.267zm-1.111.646c-.006-.444.178-.87.507-1.168.339-.32.792-.492 1.258-.477.313-.006.623.069.9.216.263.138.483.346.637.6.152.251.231.54.228.833.003.293-.076.58-.228.83-.155.254-.375.46-.637.6a1.879 1.879 0 0 1-.9.22 1.759 1.759 0 0 1-1.258-.478 1.557 1.557 0 0 1-.507-1.176zm8.029-.807a.8.8 0 0 0-.516-.175.88.88 0 0 0-.534.172.849.849 0 0 0-.318.463h1.655a.845.845 0 0 0-.287-.46zm-.47 1.785c.34-.004.665-.145.9-.39l.507.485a1.831 1.831 0 0 1-1.408.572 2.024 2.024 0 0 1-.724-.128 1.6 1.6 0 0 1-1.054-1.518 1.618 1.618 0 0 1 1.045-1.518 1.96 1.96 0 0 1 .742-.13c.28.001.557.076.8.216.247.134.453.332.595.575.14.243.214.52.213.8 0 .103-.012.205-.036.305h-2.5a.838.838 0 0 0 .309.528.95.95 0 0 0 .611.203zm2.129-1.708a.811.811 0 0 1 .318-.658 1.28 1.28 0 0 1 .832-.258 1.732 1.732 0 0 1 1.132.427l-.405.522a1.065 1.065 0 0 0-.652-.282.52.52 0 0 0-.285.071.217.217 0 0 0-.111.19c0 .182.176.309.528.38.707.142 1.058.48 1.054 1.011a.85.85 0 0 1-.333.7 1.39 1.39 0 0 1-.895.276 1.94 1.94 0 0 1-.739-.139 1.489 1.489 0 0 1-.562-.385l.426-.519c.199.24.496.378.808.374a.623.623 0 0 0 .345-.093.257.257 0 0 0 .126-.225.289.289 0 0 0-.123-.237 1.144 1.144 0 0 0-.426-.148c-.69-.14-1.036-.475-1.036-1.006h-.002zm6.342-1.453a.385.385 0 0 0-.432.44v.168h.772v.726h-.771v2.42h-.84v-2.419h-.477v-.727h.477v-.177c0-.74.416-1.109 1.249-1.109.122.001.243.011.363.03v.664a3.2 3.2 0 0 0-.339-.015h-.002zm1.793.16l.806-1.04h.847l-.844 1.041h-.809zm1.2.448h.836v3.147h-.84v-.347c-.11.13-.246.234-.4.305a1.181 1.181 0 0 1-.492.116 1.218 1.218 0 0 1-1.273-1.284v-1.937h.844v1.857a.61.61 0 0 0 .174.445.556.556 0 0 0 .414.181.747.747 0 0 0 .429-.13 1.09 1.09 0 0 0 .306-.305l.002-2.048zm2.723 2.055a.388.388 0 0 0 .438.44c.117 0 .234-.005.351-.016v.7a2.33 2.33 0 0 1-.441.044c-.795 0-1.192-.37-1.192-1.112v-1.384h-.5v-.727h.5v-.838l.844-.074v.91h.751v.726h-.751v1.331zm3.2-2.126a1.557 1.557 0 0 1 1.384.823 1.7 1.7 0 0 1 .2.824 1.69 1.69 0 0 1-.2.824 1.573 1.573 0 0 1-1.384.821 1.4 1.4 0 0 1-1.009-.388v.314h-.838V70.28h.838v1.6a1.4 1.4 0 0 1 1.007-.385h.002zm-.187 2.553a.9.9 0 0 0 .919-.907.872.872 0 0 0-.264-.646.905.905 0 0 0-.655-.267.928.928 0 0 0-.5.136.865.865 0 0 0-.333.365v.815a.865.865 0 0 0 .333.365c.15.093.324.141.5.14zm3.279-1.554a.872.872 0 0 0-.264.646.9.9 0 0 0 .919.907.9.9 0 0 0 .658-.26.867.867 0 0 0 .267-.647.867.867 0 0 0-.267-.646.9.9 0 0 0-.658-.264.89.89 0 0 0-.65.265h-.005zm-1.111.646c-.006-.444.178-.87.507-1.168.339-.32.792-.492 1.258-.477.313-.006.623.069.9.216.263.138.483.346.637.6.152.251.231.54.228.833.003.293-.076.58-.228.83-.155.254-.375.46-.637.6a1.879 1.879 0 0 1-.9.22 1.759 1.759 0 0 1-1.258-.478 1.557 1.557 0 0 1-.502-1.175h-.005zm4.156 1.572V70.28h.847v4.433h-.847zm1.826-.07a.478.478 0 0 1-.147-.36.488.488 0 0 1 .147-.362.549.549 0 0 1 .75.008c.098.094.15.224.147.36a.473.473 0 0 1-.15.358.531.531 0 0 1-.372.145.524.524 0 0 1-.371-.15h-.004zm3.624.07V70.46h2.686v.735h-1.811v1.015h1.661v.73h-1.661v1.037h1.865v.735h-2.74zm3.327-2.3a.811.811 0 0 1 .318-.658 1.28 1.28 0 0 1 .832-.258 1.732 1.732 0 0 1 1.132.427l-.405.522a1.065 1.065 0 0 0-.652-.282.52.52 0 0 0-.285.071.217.217 0 0 0-.111.19c0 .182.176.309.528.38.707.142 1.058.48 1.054 1.011a.85.85 0 0 1-.333.7 1.39 1.39 0 0 1-.895.276 1.94 1.94 0 0 1-.739-.139 1.489 1.489 0 0 1-.562-.385l.426-.519c.199.24.496.378.808.374a.623.623 0 0 0 .342-.086.257.257 0 0 0 .126-.225.289.289 0 0 0-.123-.237 1.143 1.143 0 0 0-.426-.148c-.687-.145-1.031-.483-1.031-1.014h-.004zm4.927 2.3V70.46h.872v3.508h1.742v.744h-2.614zm4.453-3.217a1.4 1.4 0 0 1 1.009.388v-.317h.835v3.147h-.835v-.315a1.4 1.4 0 0 1-1.009.388 1.508 1.508 0 0 1-.817-.222 1.556 1.556 0 0 1-.568-.6 1.76 1.76 0 0 1 0-1.646c.272-.51.806-.827 1.384-.82l.001-.003zm.177 2.553a.944.944 0 0 0 .5-.136.865.865 0 0 0 .333-.365v-.819a.865.865 0 0 0-.333-.365.934.934 0 0 0-.5-.136.9.9 0 0 0-.919.91.872.872 0 0 0 .264.646.9.9 0 0 0 .66.265h-.005zm2.546.664V70.46h.871v3.508h1.742v.744h-2.613zm3.21-3.64a.45.45 0 0 1-.139-.344.459.459 0 0 1 .144-.344.528.528 0 0 1 .715 0c.095.09.147.214.144.344a.45.45 0 0 1-.144.341.515.515 0 0 1-.36.14.507.507 0 0 1-.355-.138h-.005zm-.064 3.641v-3.147h.85v3.147h-.85zm4.072-3.146h.835v2.961c.02.43-.14.85-.444 1.156a1.725 1.725 0 0 1-1.249.436 2.239 2.239 0 0 1-.847-.16 1.9 1.9 0 0 1-.67-.445l.486-.549c.258.276.617.435.994.44a.936.936 0 0 0 .652-.22.773.773 0 0 0 .243-.6v-.212c-.27.26-.634.4-1.009.388-.576.01-1.11-.3-1.384-.807a1.662 1.662 0 0 1-.2-.815c-.003-.287.065-.57.2-.824a1.557 1.557 0 0 1 1.385-.822 1.4 1.4 0 0 1 1.009.388l-.001-.315zm-.832.661a.9.9 0 0 0-.919.91.9.9 0 0 0 .919.907.944.944 0 0 0 .5-.136.865.865 0 0 0 .333-.365v-.816a.865.865 0 0 0-.333-.365.934.934 0 0 0-.5-.135zm3.865-.735a1.4 1.4 0 0 1 1.009.388v-.315h.836v3.147h-.835v-.315a1.4 1.4 0 0 1-1.009.388 1.508 1.508 0 0 1-.817-.222 1.556 1.556 0 0 1-.568-.6 1.76 1.76 0 0 1 0-1.646c.272-.51.806-.827 1.384-.82v-.005zm.177 2.553a.944.944 0 0 0 .5-.136.865.865 0 0 0 .333-.365v-.817a.865.865 0 0 0-.333-.365.934.934 0 0 0-.5-.136.9.9 0 0 0-.919.91.872.872 0 0 0 .264.646.9.9 0 0 0 .655.265v-.002zm2.627.593a.478.478 0 0 1-.147-.359.488.488 0 0 1 .147-.362.549.549 0 0 1 .748 0c.098.094.15.224.147.36a.473.473 0 0 1-.15.358.531.531 0 0 1-.372.145.524.524 0 0 1-.373-.14v-.002z"></path><path class="llv-claim llv-character llv-claim-en" fill-rule="nonzero" d="M.7 70.798v3.7H0v-3.7h.7zm1.7 2.7c0 .3.1.4.4.4h.3v.6h-.4c-.7 0-1-.3-1-1v-1.2h-.4v-.6h.4v-.7h.7v.8H3v.6h-.6v1.1zm1.3-2.7h.7v1.5h-.7v-1.5zm1.6 2.8c.2.2.5.4.7.4.2 0 .4-.1.4-.3 0-.2-.1-.3-.5-.3-.6-.1-.9-.4-.9-.9s.4-.8 1-.8c.4 0 .7.2 1 .4l-.3.4c-.2-.1-.3-.2-.6-.2-.2 0-.3.1-.3.2s.1.3.4.3c.6.1.9.4.9.9s-.4.8-1 .8c-.5 0-.9-.2-1.1-.4l.3-.5zm4.6.9h-.7v-2.7h.7v.3c.2-.2.5-.4.8-.4.6 0 1.1.4 1.1 1.1v1.7H11v-1.6c0-.3-.2-.5-.5-.5-.2 0-.5.2-.6.4v1.7zm3.8-2.8c.9 0 1.5.6 1.5 1.4 0 .8-.6 1.4-1.5 1.4s-1.5-.6-1.5-1.4c0-.8.7-1.4 1.5-1.4zm0 2.2c.4 0 .8-.3.8-.8 0-.4-.3-.8-.8-.8-.4 0-.8.3-.8.8s.4.8.8.8zm2.9-.4c0 .3.1.4.4.4h.3v.6h-.4c-.7 0-1-.3-1-1v-1.2h-.4v-.6h.4v-.7l.7-.1v.8h.6v.6h-.6v1.2zm4.2-2.2h-.2c-.3 0-.4.1-.4.4v.1h.7v.6h-.7v2.1h-.7v-2.1H19v-.6h.4v-.2c0-.6.4-1 1.1-1h.3v.7zm1.7.4c.9 0 1.5.6 1.5 1.4 0 .8-.6 1.4-1.5 1.4s-1.5-.6-1.5-1.4c0-.8.7-1.4 1.5-1.4zm0 2.2c.4 0 .8-.3.8-.8 0-.4-.3-.8-.8-.8-.4 0-.8.3-.8.8.1.5.4.8.8.8zm3.4-2.2c.9 0 1.5.6 1.5 1.4 0 .8-.6 1.4-1.5 1.4s-1.5-.6-1.5-1.4c0-.8.6-1.4 1.5-1.4zm0 2.2c.4 0 .8-.3.8-.8 0-.4-.3-.8-.8-.8-.4 0-.8.3-.8.8s.3.8.8.8zm2.8-.4c0 .3.1.4.4.4h.3v.6H29c-.7 0-1-.3-1-1v-1.2h-.4v-.6h.4v-.7l.7-.1v.8h.6v.6h-.6v1.2zm4.1-.4c0 .8-.6 1.4-1.3 1.4-.3 0-.6-.1-.9-.3v.3h-.7v-3.8h.7v1.3c.2-.2.5-.3.9-.3.7 0 1.3.6 1.3 1.4zm-.8 0c0-.4-.3-.8-.8-.8-.3 0-.6.2-.7.4v.7c.1.3.4.4.7.4.5.1.8-.2.8-.7zm3.3-1.1v-.3h.7v2.7h-.7v-.3c-.2.2-.5.3-.9.3-.8 0-1.3-.6-1.3-1.4 0-.8.6-1.4 1.3-1.4.4.1.7.2.9.4zm0 1.5v-.7c-.1-.3-.4-.4-.7-.4-.4 0-.8.3-.8.8 0 .4.3.8.8.8.3-.1.6-.3.7-.5zm1.4-2.8h.7v3.8h-.7v-3.8zm1.4 0h.7v3.8h-.7v-3.8zm1.9 3c.3 0 .4.2.4.4s-.2.4-.4.4c-.3 0-.4-.2-.4-.4s.2-.4.4-.4zm3.5-2.9v3.7h-.7v-3.7h.7zm1.7 2.7c0 .3.1.4.4.4h.3v.6h-.4c-.7 0-1-.3-1-1v-1.2h-.4v-.6h.4v-.7l.7-.1v.8h.6v.6h-.6v1.2zm1.2-2.7h.7v1.5h-.7v-1.5zm1.7 2.8c.2.2.4.3.7.3.2 0 .4-.1.4-.3 0-.2-.1-.3-.5-.3-.6-.1-.9-.4-.9-.9s.4-.8 1-.8c.4 0 .7.2 1 .4l-.3.4c-.2-.1-.3-.2-.6-.2-.2 0-.3.1-.3.2s.1.3.4.3c.6.1.9.4.9.9s-.4.8-1 .8c-.5 0-.9-.2-1.1-.4l.3-.4zm3.9-2.8h.7v3h1.5v.6H52v-3.6zm4.7 1.2v-.3h.7v2.7h-.7v-.3c-.2.2-.5.3-.9.3-.8 0-1.3-.6-1.3-1.4 0-.8.6-1.4 1.3-1.4.3.1.6.2.9.4zm0 1.5v-.7c-.1-.3-.4-.4-.7-.4-.4 0-.8.3-.8.8 0 .4.3.8.8.8.3-.1.6-.3.7-.5zm1.4-2.7h.7v3h1.5v.6h-2.2v-3.6zm3-.2c.2 0 .4.2.4.4s-.2.4-.4.4-.4-.2-.4-.4.2-.4.4-.4zm-.3 1.2h.7v2.7h-.7v-2.7zm3.4 0h.7v2.5c0 .8-.5 1.4-1.4 1.4-.5 0-1-.2-1.3-.5l.4-.5c.2.2.5.4.8.4.5 0 .8-.3.8-.7v-.2c-.2.2-.5.3-.9.3-.8 0-1.3-.6-1.3-1.4 0-.8.6-1.4 1.3-1.4.3 0 .6.1.9.3v-.2zm0 1c-.1-.3-.4-.4-.7-.4-.4 0-.8.3-.8.8 0 .4.3.8.8.8.3 0 .6-.2.7-.4v-.8zm3.5-.8v-.3h.7v2.7h-.7v-.3c-.2.2-.5.3-.9.3-.8 0-1.3-.6-1.3-1.4 0-.8.6-1.4 1.3-1.4.3.1.6.2.9.4zm0 1.5v-.7c-.1-.3-.4-.4-.7-.4-.4 0-.8.3-.8.8 0 .4.3.8.8.8.3-.1.5-.3.7-.5zm1.8.2c.3 0 .4.2.4.4s-.2.4-.4.4c-.3 0-.4-.2-.4-.4s.1-.4.4-.4z"></path><path class="llv-petal llv-purple" d="M17.569 10.492a.274.274 0 0 0 .115.372l8.537 4.92.019.01a.277.277 0 0 0 .383-.129 11.193 11.193 0 0 1 7.841-5.476.274.274 0 0 0 .213-.311V9.86L32.868.237V.22a.278.278 0 0 0-.307-.22h-.023a21.814 21.814 0 0 0-8.669 3.607 21.447 21.447 0 0 0-6.3 6.877"></path><path class="llv-petal llv-darkblue" d="M12.715 29.094a.28.28 0 0 0 .367.141l9.253-3.51.02-.009a.273.273 0 0 0 .139-.378 10.913 10.913 0 0 1 .606-9.465.287.287 0 0 0 .028-.1.275.275 0 0 0-.141-.255l-.017-.009-8.738-4.614-.015-.007a.279.279 0 0 0-.363.098c0 .007-.008.014-.012.021a21.15 21.15 0 0 0-1.128 18.086"></path><path class="llv-petal llv-blue" d="M24.308 44.34a.28.28 0 0 0 .273-.078.273.273 0 0 0 .061-.118l2.937-9.317.006-.02a.269.269 0 0 0-.166-.328 11.181 11.181 0 0 1-4.313-2.374 11.013 11.013 0 0 1-2.861-3.98.278.278 0 0 0-.352-.134l-.013.01-9.06 3.873-.016.007a.273.273 0 0 0-.15.341l.01.022a21.6 21.6 0 0 0 13.64 12.1"></path><path class="llv-petal llv-green" d="M43.7 44.861a.272.272 0 0 0 .058-.384l-5.516-8.094-.013-.018a.278.278 0 0 0-.401-.05 11.356 11.356 0 0 1-9.489 1.513.3.3 0 0 0-.106 0 .277.277 0 0 0-.221.191l-.005.02-2.631 9.4v.015c-.01.04-.01.08 0 .12.02.096.089.175.182.207l.023.006a22.065 22.065 0 0 0 9.407.517 21.786 21.786 0 0 0 8.719-3.436"></path><path class="llv-petal llv-yellow" d="M56.298 30.3a.274.274 0 0 0-.271-.282l-9.9-.759h-.022a.274.274 0 0 0-.29.28 10.885 10.885 0 0 1-1.387 4.636 11.073 11.073 0 0 1-3.307 3.645.268.268 0 0 0-.054.369l.011.016 5.87 7.867.01.013a.285.285 0 0 0 .372.066l.019-.014a21.583 21.583 0 0 0 6.267-6.955 21.037 21.037 0 0 0 2.682-8.882"></path><path class="llv-petal llv-orange" d="M52.582 11.476a.28.28 0 0 0-.392.028l-6.8 7.072-.015.016a.269.269 0 0 0 .038.396 11.013 11.013 0 0 1 2.781 3.974 10.861 10.861 0 0 1 .794 4.813c0 .034.007.068.019.1.04.097.132.163.237.17h.02l9.872.472h.017a.263.263 0 0 0 .118-.023.275.275 0 0 0 .166-.219v-.024a21.265 21.265 0 0 0-6.852-16.78"></path><path class="llv-petal llv-red" d="M35.28 2.65a.272.272 0 0 0-.22.323l1.455 9.7v.02c.02.104.098.187.2.214a.27.27 0 0 0 .147.002 11.413 11.413 0 0 1 4.922.3 11.292 11.292 0 0 1 4.362 2.371.281.281 0 0 0 .379-.031l.013-.014 6.517-7.413.011-.014A.261.261 0 0 0 53.121 8a.273.273 0 0 0-.073-.266l-.018-.016A22.1 22.1 0 0 0 35.282 2.65"></path><path class="llv-ball llv-frontball" d="M34.68 16.56a8.158 8.158 0 0 1 8.2 8.1 8.1 8.1 0 1 1-8.2-8.1zm6 12.661a7.351 7.351 0 0 0 1.576-4.566c0-.079-.006-.158-.006-.236-.11.337-.258.66-.443.962a4.842 4.842 0 0 0-.169-.665 4.582 4.582 0 0 0-.972-1.683l-2.267.454-.009-.025 2.117-.955a4.557 4.557 0 0 0-.218-1.892 5.109 5.109 0 0 0-.259-.636c.34.14.661.322.956.541a7.547 7.547 0 0 0-4.23-3.032c.31.21.593.46.838.743a5.187 5.187 0 0 0-.694-.047 4.719 4.719 0 0 0-1.906.386l-.263 2.266h-.027l-.263-2.264a4.722 4.722 0 0 0-1.909-.388c-.231 0-.463.016-.692.047.245-.284.528-.535.84-.744a7.547 7.547 0 0 0-4.233 3.037c.296-.221.619-.405.961-.545a4.877 4.877 0 0 0-.259.636 4.567 4.567 0 0 0-.219 1.89l2.12.956-.008.025-2.268-.454a4.591 4.591 0 0 0-.974 1.686c-.072.218-.129.44-.169.665a4.461 4.461 0 0 1-.445-.969c-.006.08-.006.161-.006.243 0 1.66.562 3.27 1.593 4.57a4.607 4.607 0 0 1-.206-1.016c.167.16.345.307.532.441a4.7 4.7 0 0 0 1.758.79l1.587-1.707.022.016-1.15 2.01c.333.564.782 1.05 1.317 1.427.188.135.384.256.588.364-.34.077-.687.117-1.035.12a7.637 7.637 0 0 0 5.077 0 4.847 4.847 0 0 1-1.032-.12c.204-.109.401-.23.589-.365a4.627 4.627 0 0 0 1.316-1.427l-1.149-2.009.022-.016 1.586 1.707a4.706 4.706 0 0 0 1.758-.79c.188-.135.366-.283.533-.442-.031.344-.1.683-.206 1.011zm-9.355-5.67l3.354-2.39 3.355 2.39-1.281 3.866h-4.147l-1.281-3.867z"></path><path class="llv-ball llv-backball" d="M40.68 29.224c.106-.328.175-.667.206-1.01a5.049 5.049 0 0 1-.533.44 4.706 4.706 0 0 1-1.758.791l-1.586-1.707-.022.016 1.149 2.01a4.627 4.627 0 0 1-1.316 1.426 5.107 5.107 0 0 1-.589.364c.339.077.685.117 1.032.12a7.637 7.637 0 0 1-5.077 0 4.823 4.823 0 0 0 1.035-.119c-.204-.108-.4-.23-.588-.364a4.633 4.633 0 0 1-1.317-1.427l1.15-2.01-.022-.016-1.587 1.707a4.7 4.7 0 0 1-1.758-.79 4.979 4.979 0 0 1-.532-.44c.03.344.1.685.206 1.014a7.356 7.356 0 0 1-1.587-4.812c.11.34.258.665.445.97.04-.226.097-.449.169-.666.2-.625.533-1.2.974-1.686l2.268.454.008-.025-2.12-.956a4.567 4.567 0 0 1 .219-1.89c.071-.218.158-.43.259-.636-.342.14-.665.323-.961.545a7.547 7.547 0 0 1 4.233-3.037c-.312.21-.595.46-.84.744.23-.031.46-.047.692-.047a4.722 4.722 0 0 1 1.909.388l.263 2.264h.027l.263-2.266a4.719 4.719 0 0 1 1.906-.386c.232 0 .464.016.694.047a4.252 4.252 0 0 0-.838-.743 7.547 7.547 0 0 1 4.23 3.032 4.427 4.427 0 0 0-.956-.54c.1.205.187.418.259.635.205.608.28 1.253.218 1.892l-2.117.955.009.025 2.267-.454c.44.485.772 1.06.972 1.683.072.218.128.44.169.665.185-.302.334-.625.443-.962 0 .078.006.157.006.236a7.351 7.351 0 0 1-1.576 4.566zm-9.35-5.674l1.281 3.867h4.147l1.281-3.867-3.355-2.39-3.354 2.39z"></path><path class="llv-character llv-name" fill-rule="nonzero" d="M10.828 53.918h2.867v8.391h3.469v2.466h-6.336V53.918zm6.714 6.553a4.419 4.419 0 0 1 4.3-4.529A3.488 3.488 0 0 1 24.387 57v-.886h2.655v8.635h-2.7V63.9a3.782 3.782 0 0 1-2.653 1.056c-2.467 0-4.154-1.717-4.154-4.488l.007.003zm4.824-2.113a2.125 2.125 0 0 0-.086 4.248 2.106 2.106 0 0 0 2.192-2.11 2.059 2.059 0 0 0-2.106-2.138zm12.502 6.417h-6.336V53.918h2.867v8.391h3.469v2.466zm.931-10.912a1.584 1.584 0 1 1 2.694 1.115 1.612 1.612 0 0 1-1.145.471 1.555 1.555 0 0 1-1.549-1.586zm.253 10.912v-8.7h2.62v8.7h-2.62zm3.847-4.475c0-2.359 1.505-4.362 3.806-4.362a3.28 3.28 0 0 1 2.611 1.15v-.979h2.526V63.8c0 2.7-2.031 4.1-4.473 4.1-2.144 0-4.018-1.079-4.3-3.04h2.973c.266.508.824.793 1.391.71.922 0 1.774-.425 1.774-1.377.01-.218.005-.436-.014-.654a4 4 0 0 1-2.5 1.008c-2.257 0-3.791-1.875-3.791-4.247h-.003zm4.418-2.1a1.887 1.887 0 0 0-1.846 2.09 1.859 1.859 0 0 0 1.833 2.045A1.99 1.99 0 0 0 46.33 60.3a1.915 1.915 0 0 0-2.015-2.1h.002zm5.646 2.271a4.418 4.418 0 0 1 4.3-4.529c.959-.013 1.88.37 2.549 1.058v-.886h2.654v8.635h-2.7V63.9a3.782 3.782 0 0 1-2.653 1.056c-2.466 0-4.153-1.717-4.153-4.488l.003.003zm4.829-2.113a2.125 2.125 0 0 0-.087 4.248 2.106 2.106 0 0 0 2.192-2.11 2.058 2.058 0 0 0-2.105-2.138z"></path></g></svg>